<?xml version="1.0" standalone="no"?>
<!DOCTYPE svg PUBLIC "-//W3C//DTD SVG 1.1//EN"
  "http://www.w3.org/Graphics/SVG/1.1/DTD/svg11.dtd">
<svg width="140" height="190" version="1.1"
  xmlns="http://www.w3.org/2000/svg">
<rect x="60" y="0" width="10" height="10" rx="0" ry="0" style="fill:#852304;"/><rect x="70" y="0" width="10" height="10" rx="0" ry="0" style="fill:#852304;"/><rect x="0" y="10" width="10" height="10" rx="0" ry="0" style="fill:#FD8E35;"/><rect x="10" y="10" width="10" height="10" rx="0" ry="0" style="fill:#FD8E35;"/><rect x="40" y="10" width="10" height="10" rx="0" ry="0" style="fill:#852304;"/><rect x="50" y="10" width="10" height="10" rx="0" ry="0" style="fill:#852304;"/><rect x="60" y="10" width="10" height="10" rx="0" ry="0" style="fill:#852304;"/><rect x="70" y="10" width="10" height="10" rx="0" ry="0" style="fill:#852304;"/><rect x="80" y="10" width="10" height="10" rx="0" ry="0" style="fill:#852304;"/><rect x="90" y="10" width="10" height="10" rx="0" ry="0" style="fill:#852304;"/><rect x="120" y="10" width="10" height="10" rx="0" ry="0" style="fill:#FD8E35;"/><rect x="130" y="10" width="10" height="10" rx="0" ry="0" style="fill:#FD8E35;"/><rect x="0" y="20" width="10" height="10" rx="0" ry="0" style="fill:#FD8E35;"/><rect x="10" y="20" width="10" height="10" rx="0" ry="0" style="fill:#FD8E35;"/><rect x="20" y="20" width="10" height="10" rx="0" ry="0" style="fill:#FD8E35;"/><rect x="30" y="20" width="10" height="10" rx="0" ry="0" style="fill:#852304;"/><rect x="40" y="20" width="10" height="10" rx="0" ry="0" style="fill:#852304;"/><rect x="50" y="20" width="10" height="10" rx="0" ry="0" style="fill:#852304;"/><rect x="60" y="20" width="10" height="10" rx="0" ry="0" style="fill:#852304;"/><rect x="70" y="20" width="10" height="10" rx="0" ry="0" style="fill:#852304;"/><rect x="80" y="20" width="10" height="10" rx="0" ry="0" style="fill:#852304;"/><rect x="90" y="20" width="10" height="10" rx="0" ry="0" style="fill:#852304;"/><rect x="100" y="20" width="10" height="10" rx="0" ry="0" style="fill:#852304;"/><rect x="110" y="20" width="10" height="10" rx="0" ry="0" style="fill:#FD8E35;"/><rect x="120" y="20" width="10" height="10" rx="0" ry="0" style="fill:#FD8E35;"/><rect x="130" y="20" width="10" height="10" rx="0" ry="0" style="fill:#FD8E35;"/><rect x="0" y="30" width="10" height="10" rx="0" ry="0" style="fill:black;"/><rect x="10" y="30" width="10" height="10" rx="0" ry="0" style="fill:black;"/><rect x="20" y="30" width="10" height="10" rx="0" ry="0" style="fill:#3B4651;"/><rect x="30" y="30" width="10" height="10" rx="0" ry="0" style="fill:#852304;"/><rect x="40" y="30" width="10" height="10" rx="0" ry="0" style="fill:#852304;"/><rect x="50" y="30" width="10" height="10" rx="0" ry="0" style="fill:#FD8E35;"/><rect x="60" y="30" width="10" height="10" rx="0" ry="0" style="fill:#FD8E35;"/><rect x="70" y="30" width="10" height="10" rx="0" ry="0" style="fill:#852304;"/><rect x="80" y="30" width="10" height="10" rx="0" ry="0" style="fill:#852304;"/><rect x="90" y="30" width="10" height="10" rx="0" ry="0" style="fill:#852304;"/><rect x="100" y="30" width="10" height="10" rx="0" ry="0" style="fill:#852304;"/><rect x="110" y="30" width="10" height="10" rx="0" ry="0" style="fill:#3B4651;"/><rect x="120" y="30" width="10" height="10" rx="0" ry="0" style="fill:black;"/><rect x="130" y="30" width="10" height="10" rx="0" ry="0" style="fill:black;"/><rect x="0" y="40" width="10" height="10" rx="0" ry="0" style="fill:black;"/><rect x="10" y="40" width="10" height="10" rx="0" ry="0" style="fill:black;"/><rect x="20" y="40" width="10" height="10" rx="0" ry="0" style="fill:#FD8E35;"/><rect x="30" y="40" width="10" height="10" rx="0" ry="0" style="fill:#852304;"/><rect x="40" y="40" width="10" height="10" rx="0" ry="0" style="fill:#FD8E35;"/><rect x="50" y="40" width="10" height="10" rx="0" ry="0" style="fill:black;"/><rect x="60" y="40" width="10" height="10" rx="0" ry="0" style="fill:#FD8E35;"/><rect x="70" y="40" width="10" height="10" rx="0" ry="0" style="fill:#FD8E35;"/><rect x="80" y="40" width="10" height="10" rx="0" ry="0" style="fill:black;"/><rect x="90" y="40" width="10" height="10" rx="0" ry="0" style="fill:#FD8E35;"/><rect x="100" y="40" width="10" height="10" rx="0" ry="0" style="fill:#852304;"/><rect x="110" y="40" width="10" height="10" rx="0" ry="0" style="fill:#FD8E35;"/><rect x="120" y="40" width="10" height="10" rx="0" ry="0" style="fill:black;"/><rect x="130" y="40" width="10" height="10" rx="0" ry="0" style="fill:black;"/><rect x="0" y="50" width="10" height="10" rx="0" ry="0" style="fill:black;"/><rect x="10" y="50" width="10" height="10" rx="0" ry="0" style="fill:black;"/><rect x="20" y="50" width="10" height="10" rx="0" ry="0" style="fill:#FD8E35;"/><rect x="30" y="50" width="10" height="10" rx="0" ry="0" style="fill:#FD8E35;"/><rect x="40" y="50" width="10" height="10" rx="0" ry="0" style="fill:#FD8E35;"/><rect x="50" y="50" width="10" height="10" rx="0" ry="0" style="fill:#313DD2;"/><rect x="60" y="50" width="10" height="10" rx="0" ry="0" style="fill:#FD8E35;"/><rect x="70" y="50" width="10" height="10" rx="0" ry="0" style="fill:#FD8E35;"/><rect x="80" y="50" width="10" height="10" rx="0" ry="0" style="fill:#313DD2;"/><rect x="90" y="50" width="10" height="10" rx="0" ry="0" style="fill:#FD8E35;"/><rect x="100" y="50" width="10" height="10" rx="0" ry="0" style="fill:#FD8E35;"/><rect x="110" y="50" width="10" height="10" rx="0" ry="0" style="fill:#FD8E35;"/><rect x="120" y="50" width="10" height="10" rx="0" ry="0" style="fill:black;"/><rect x="130" y="50" width="10" height="10" rx="0" ry="0" style="fill:black;"/><rect x="10" y="60" width="10" height="10" rx="0" ry="0" style="fill:black;"/><rect x="20" y="60" width="10" height="10" rx="0" ry="0" style="fill:black;"/><rect x="30" y="60" width="10" height="10" rx="0" ry="0" style="fill:#FD8E35;"/><rect x="40" y="60" width="10" height="10" rx="0" ry="0" style="fill:#FD8E35;"/><rect x="50" y="60" width="10" height="10" rx="0" ry="0" style="fill:#FD8E35;"/><rect x="60" y="60" width="10" height="10" rx="0" ry="0" style="fill:#FD8E35;"/><rect x="70" y="60" width="10" height="10" rx="0" ry="0" style="fill:#FD8E35;"/><rect x="80" y="60" width="10" height="10" rx="0" ry="0" style="fill:#FD8E35;"/><rect x="90" y="60" width="10" height="10" rx="0" ry="0" style="fill:#FD8E35;"/><rect x="100" y="60" width="10" height="10" rx="0" ry="0" style="fill:#FD8E35;"/><rect x="110" y="60" width="10" height="10" rx="0" ry="0" style="fill:black;"/><rect x="120" y="60" width="10" height="10" rx="0" ry="0" style="fill:black;"/><rect x="10" y="70" width="10" height="10" rx="0" ry="0" style="fill:black;"/><rect x="20" y="70" width="10" height="10" rx="0" ry="0" style="fill:black;"/><rect x="30" y="70" width="10" height="10" rx="0" ry="0" style="fill:black;"/><rect x="40" y="70" width="10" height="10" rx="0" ry="0" style="fill:#FD8E35;"/><rect x="50" y="70" width="10" height="10" rx="0" ry="0" style="fill:#FD8E35;"/><rect x="60" y="70" width="10" height="10" rx="0" ry="0" style="fill:#852304;"/><rect x="70" y="70" width="10" height="10" rx="0" ry="0" style="fill:#852304;"/><rect x="80" y="70" width="10" height="10" rx="0" ry="0" style="fill:#FD8E35;"/><rect x="90" y="70" width="10" height="10" rx="0" ry="0" style="fill:#FD8E35;"/><rect x="100" y="70" width="10" height="10" rx="0" ry="0" style="fill:black;"/><rect x="110" y="70" width="10" height="10" rx="0" ry="0" style="fill:black;"/><rect x="120" y="70" width="10" height="10" rx="0" ry="0" style="fill:black;"/><rect x="20" y="80" width="10" height="10" rx="0" ry="0" style="fill:black;"/><rect x="30" y="80" width="10" height="10" rx="0" ry="0" style="fill:black;"/><rect x="40" y="80" width="10" height="10" rx="0" ry="0" style="fill:black;"/><rect x="50" y="80" width="10" height="10" rx="0" ry="0" style="fill:#FD8E35;"/><rect x="60" y="80" width="10" height="10" rx="0" ry="0" style="fill:#852304;"/><rect x="70" y="80" width="10" height="10" rx="0" ry="0" style="fill:#852304;"/><rect x="80" y="80" width="10" height="10" rx="0" ry="0" style="fill:#FD8E35;"/><rect x="90" y="80" width="10" height="10" rx="0" ry="0" style="fill:black;"/><rect x="100" y="80" width="10" height="10" rx="0" ry="0" style="fill:black;"/><rect x="110" y="80" width="10" height="10" rx="0" ry="0" style="fill:black;"/><rect x="20" y="90" width="10" height="10" rx="0" ry="0" style="fill:black;"/><rect x="30" y="90" width="10" height="10" rx="0" ry="0" style="fill:black;"/><rect x="40" y="90" width="10" height="10" rx="0" ry="0" style="fill:black;"/><rect x="50" y="90" width="10" height="10" rx="0" ry="0" style="fill:black;"/><rect x="60" y="90" width="10" height="10" rx="0" ry="0" style="fill:black;"/><rect x="70" y="90" width="10" height="10" rx="0" ry="0" style="fill:black;"/><rect x="80" y="90" width="10" height="10" rx="0" ry="0" style="fill:black;"/><rect x="90" y="90" width="10" height="10" rx="0" ry="0" style="fill:black;"/><rect x="100" y="90" width="10" height="10" rx="0" ry="0" style="fill:black;"/><rect x="110" y="90" width="10" height="10" rx="0" ry="0" style="fill:black;"/><rect x="20" y="100" width="10" height="10" rx="0" ry="0" style="fill:black;"/><rect x="30" y="100" width="10" height="10" rx="0" ry="0" style="fill:black;"/><rect x="40" y="100" width="10" height="10" rx="0" ry="0" style="fill:black;"/><rect x="50" y="100" width="10" height="10" rx="0" ry="0" style="fill:black;"/><rect x="60" y="100" width="10" height="10" rx="0" ry="0" style="fill:black;"/><rect x="70" y="100" width="10" height="10" rx="0" ry="0" style="fill:black;"/><rect x="80" y="100" width="10" height="10" rx="0" ry="0" style="fill:black;"/><rect x="90" y="100" width="10" height="10" rx="0" ry="0" style="fill:black;"/><rect x="100" y="100" width="10" height="10" rx="0" ry="0" style="fill:black;"/><rect x="110" y="100" width="10" height="10" rx="0" ry="0" style="fill:black;"/><rect x="30" y="110" width="10" height="10" rx="0" ry="0" style="fill:black;"/><rect x="40" y="110" width="10" height="10" rx="0" ry="0" style="fill:black;"/><rect x="50" y="110" width="10" height="10" rx="0" ry="0" style="fill:black;"/><rect x="60" y="110" width="10" height="10" rx="0" ry="0" style="fill:black;"/><rect x="70" y="110" width="10" height="10" rx="0" ry="0" style="fill:black;"/><rect x="80" y="110" width="10" height="10" rx="0" ry="0" style="fill:black;"/><rect x="90" y="110" width="10" height="10" rx="0" ry="0" style="fill:black;"/><rect x="100" y="110" width="10" height="10" rx="0" ry="0" style="fill:black;"/><rect x="30" y="120" width="10" height="10" rx="0" ry="0" style="fill:black;"/><rect x="40" y="120" width="10" height="10" rx="0" ry="0" style="fill:black;"/><rect x="50" y="120" width="10" height="10" rx="0" ry="0" style="fill:black;"/><rect x="60" y="120" width="10" height="10" rx="0" ry="0" style="fill:black;"/><rect x="70" y="120" width="10" height="10" rx="0" ry="0" style="fill:black;"/><rect x="80" y="120" width="10" height="10" rx="0" ry="0" style="fill:black;"/><rect x="90" y="120" width="10" height="10" rx="0" ry="0" style="fill:black;"/><rect x="100" y="120" width="10" height="10" rx="0" ry="0" style="fill:black;"/><rect x="30" y="130" width="10" height="10" rx="0" ry="0" style="fill:black;"/><rect x="40" y="130" width="10" height="10" rx="0" ry="0" style="fill:black;"/><rect x="50" y="130" width="10" height="10" rx="0" ry="0" style="fill:black;"/><rect x="60" y="130" width="10" height="10" rx="0" ry="0" style="fill:black;"/><rect x="70" y="130" width="10" height="10" rx="0" ry="0" style="fill:black;"/><rect x="80" y="130" width="10" height="10" rx="0" ry="0" style="fill:black;"/><rect x="90" y="130" width="10" height="10" rx="0" ry="0" style="fill:black;"/><rect x="100" y="130" width="10" height="10" rx="0" ry="0" style="fill:black;"/><rect x="30" y="140" width="10" height="10" rx="0" ry="0" style="fill:#313DD2;"/><rect x="40" y="140" width="10" height="10" rx="0" ry="0" style="fill:#313DD2;"/><rect x="50" y="140" width="10" height="10" rx="0" ry="0" style="fill:#313DD2;"/><rect x="60" y="140" width="10" height="10" rx="0" ry="0" style="fill:#313DD2;"/><rect x="70" y="140" width="10" height="10" rx="0" ry="0" style="fill:#313DD2;"/><rect x="80" y="140" width="10" height="10" rx="0" ry="0" style="fill:#313DD2;"/><rect x="90" y="140" width="10" height="10" rx="0" ry="0" style="fill:#313DD2;"/><rect x="100" y="140" width="10" height="10" rx="0" ry="0" style="fill:#313DD2;"/><rect x="30" y="150" width="10" height="10" rx="0" ry="0" style="fill:#313DD2;"/><rect x="40" y="150" width="10" height="10" rx="0" ry="0" style="fill:#313DD2;"/><rect x="50" y="150" width="10" height="10" rx="0" ry="0" style="fill:#313DD2;"/><rect x="80" y="150" width="10" height="10" rx="0" ry="0" style="fill:#313DD2;"/><rect x="90" y="150" width="10" height="10" rx="0" ry="0" style="fill:#313DD2;"/><rect x="100" y="150" width="10" height="10" rx="0" ry="0" style="fill:#313DD2;"/><rect x="30" y="160" width="10" height="10" rx="0" ry="0" style="fill:#313DD2;"/><rect x="40" y="160" width="10" height="10" rx="0" ry="0" style="fill:#313DD2;"/><rect x="50" y="160" width="10" height="10" rx="0" ry="0" style="fill:#313DD2;"/><rect x="80" y="160" width="10" height="10" rx="0" ry="0" style="fill:#313DD2;"/><rect x="90" y="160" width="10" height="10" rx="0" ry="0" style="fill:#313DD2;"/><rect x="100" y="160" width="10" height="10" rx="0" ry="0" style="fill:#313DD2;"/><rect x="30" y="170" width="10" height="10" rx="0" ry="0" style="fill:#313DD2;"/><rect x="40" y="170" width="10" height="10" rx="0" ry="0" style="fill:#313DD2;"/><rect x="50" y="170" width="10" height="10" rx="0" ry="0" style="fill:#313DD2;"/><rect x="80" y="170" width="10" height="10" rx="0" ry="0" style="fill:#313DD2;"/><rect x="90" y="170" width="10" height="10" rx="0" ry="0" style="fill:#313DD2;"/><rect x="100" y="170" width="10" height="10" rx="0" ry="0" style="fill:#313DD2;"/><rect x="30" y="180" width="10" height="10" rx="0" ry="0" style="fill:black;"/><rect x="40" y="180" width="10" height="10" rx="0" ry="0" style="fill:black;"/><rect x="50" y="180" width="10" height="10" rx="0" ry="0" style="fill:black;"/><rect x="80" y="180" width="10" height="10" rx="0" ry="0" style="fill:black;"/><rect x="90" y="180" width="10" height="10" rx="0" ry="0" style="fill:black;"/><rect x="100" y="180" width="10" height="10" rx="0" ry="0" style="fill:black;"/></svg>