<?xml version="1.0" standalone="no"?>
<!DOCTYPE svg PUBLIC "-//W3C//DTD SVG 1.1//EN"
  "http://www.w3.org/Graphics/SVG/1.1/DTD/svg11.dtd">
<svg width="140" height="100" version="1.1"
  xmlns="http://www.w3.org/2000/svg">
<rect x="30" y="0" width="10" height="10" rx="0" ry="0" style="fill:#FC4D54;"/><rect x="40" y="0" width="10" height="10" rx="0" ry="0" style="fill:#BE0005;"/><rect x="50" y="0" width="10" height="10" rx="0" ry="0" style="fill:#BE0005;"/><rect x="60" y="0" width="10" height="10" rx="0" ry="0" style="fill:#FC4D54;"/><rect x="70" y="0" width="10" height="10" rx="0" ry="0" style="fill:#BE0005;"/><rect x="80" y="0" width="10" height="10" rx="0" ry="0" style="fill:#FC4D54;"/><rect x="90" y="0" width="10" height="10" rx="0" ry="0" style="fill:#BE0005;"/><rect x="100" y="0" width="10" height="10" rx="0" ry="0" style="fill:#FC4D54;"/><rect x="20" y="10" width="10" height="10" rx="0" ry="0" style="fill:#FC4D54;"/><rect x="30" y="10" width="10" height="10" rx="0" ry="0" style="fill:#BE0005;"/><rect x="40" y="10" width="10" height="10" rx="0" ry="0" style="fill:#BE0005;"/><rect x="50" y="10" width="10" height="10" rx="0" ry="0" style="fill:#FC4D54;"/><rect x="60" y="10" width="10" height="10" rx="0" ry="0" style="fill:#BE0005;"/><rect x="70" y="10" width="10" height="10" rx="0" ry="0" style="fill:#FC4D54;"/><rect x="80" y="10" width="10" height="10" rx="0" ry="0" style="fill:#BE0005;"/><rect x="90" y="10" width="10" height="10" rx="0" ry="0" style="fill:#FC4D54;"/><rect x="100" y="10" width="10" height="10" rx="0" ry="0" style="fill:#BE0005;"/><rect x="110" y="10" width="10" height="10" rx="0" ry="0" style="fill:#FC4D54;"/><rect x="10" y="20" width="10" height="10" rx="0" ry="0" style="fill:#BE0005;"/><rect x="20" y="20" width="10" height="10" rx="0" ry="0" style="fill:#BE0005;"/><rect x="30" y="20" width="10" height="10" rx="0" ry="0" style="fill:#BE0005;"/><rect x="40" y="20" width="10" height="10" rx="0" ry="0" style="fill:#FC4D54;"/><rect x="50" y="20" width="10" height="10" rx="0" ry="0" style="fill:#BE0005;"/><rect x="60" y="20" width="10" height="10" rx="0" ry="0" style="fill:#FC4D54;"/><rect x="70" y="20" width="10" height="10" rx="0" ry="0" style="fill:#BE0005;"/><rect x="80" y="20" width="10" height="10" rx="0" ry="0" style="fill:#BE0005;"/><rect x="90" y="20" width="10" height="10" rx="0" ry="0" style="fill:#BE0005;"/><rect x="100" y="20" width="10" height="10" rx="0" ry="0" style="fill:#FC4D54;"/><rect x="110" y="20" width="10" height="10" rx="0" ry="0" style="fill:#BE0005;"/><rect x="120" y="20" width="10" height="10" rx="0" ry="0" style="fill:#FC4D54;"/><rect x="0" y="30" width="10" height="10" rx="0" ry="0" style="fill:#BE0005;"/><rect x="10" y="30" width="10" height="10" rx="0" ry="0" style="fill:#BE0005;"/><rect x="20" y="30" width="10" height="10" rx="0" ry="0" style="fill:#BE0005;"/><rect x="30" y="30" width="10" height="10" rx="0" ry="0" style="fill:#BE0005;"/><rect x="40" y="30" width="10" height="10" rx="0" ry="0" style="fill:#BE0005;"/><rect x="50" y="30" width="10" height="10" rx="0" ry="0" style="fill:#FC4D54;"/><rect x="60" y="30" width="10" height="10" rx="0" ry="0" style="fill:#BE0005;"/><rect x="70" y="30" width="10" height="10" rx="0" ry="0" style="fill:#FC4D54;"/><rect x="80" y="30" width="10" height="10" rx="0" ry="0" style="fill:#BE0005;"/><rect x="90" y="30" width="10" height="10" rx="0" ry="0" style="fill:#FC4D54;"/><rect x="100" y="30" width="10" height="10" rx="0" ry="0" style="fill:#BE0005;"/><rect x="110" y="30" width="10" height="10" rx="0" ry="0" style="fill:#FC4D54;"/><rect x="120" y="30" width="10" height="10" rx="0" ry="0" style="fill:#BE0005;"/><rect x="130" y="30" width="10" height="10" rx="0" ry="0" style="fill:#FC4D54;"/><rect x="10" y="40" width="10" height="10" rx="0" ry="0" style="fill:#BE0005;"/><rect x="20" y="40" width="10" height="10" rx="0" ry="0" style="fill:#FC4D54;"/><rect x="30" y="40" width="10" height="10" rx="0" ry="0" style="fill:#BE0005;"/><rect x="40" y="40" width="10" height="10" rx="0" ry="0" style="fill:#BE0005;"/><rect x="50" y="40" width="10" height="10" rx="0" ry="0" style="fill:#BE0005;"/><rect x="60" y="40" width="10" height="10" rx="0" ry="0" style="fill:#FC4D54;"/><rect x="70" y="40" width="10" height="10" rx="0" ry="0" style="fill:#BE0005;"/><rect x="80" y="40" width="10" height="10" rx="0" ry="0" style="fill:#FC4D54;"/><rect x="90" y="40" width="10" height="10" rx="0" ry="0" style="fill:#BE0005;"/><rect x="100" y="40" width="10" height="10" rx="0" ry="0" style="fill:#FC4D54;"/><rect x="110" y="40" width="10" height="10" rx="0" ry="0" style="fill:#BE0005;"/><rect x="120" y="40" width="10" height="10" rx="0" ry="0" style="fill:#FC4D54;"/><rect x="20" y="50" width="10" height="10" rx="0" ry="0" style="fill:#BE0005;"/><rect x="30" y="50" width="10" height="10" rx="0" ry="0" style="fill:#FC4D54;"/><rect x="40" y="50" width="10" height="10" rx="0" ry="0" style="fill:#BE0005;"/><rect x="50" y="50" width="10" height="10" rx="0" ry="0" style="fill:#BE0005;"/><rect x="60" y="50" width="10" height="10" rx="0" ry="0" style="fill:#BE0005;"/><rect x="70" y="50" width="10" height="10" rx="0" ry="0" style="fill:#FC4D54;"/><rect x="80" y="50" width="10" height="10" rx="0" ry="0" style="fill:#BE0005;"/><rect x="90" y="50" width="10" height="10" rx="0" ry="0" style="fill:#FC4D54;"/><rect x="100" y="50" width="10" height="10" rx="0" ry="0" style="fill:#BE0005;"/><rect x="110" y="50" width="10" height="10" rx="0" ry="0" style="fill:#FC4D54;"/><rect x="30" y="60" width="10" height="10" rx="0" ry="0" style="fill:#BE0005;"/><rect x="40" y="60" width="10" height="10" rx="0" ry="0" style="fill:#FC4D54;"/><rect x="50" y="60" width="10" height="10" rx="0" ry="0" style="fill:#BE0005;"/><rect x="60" y="60" width="10" height="10" rx="0" ry="0" style="fill:#BE0005;"/><rect x="70" y="60" width="10" height="10" rx="0" ry="0" style="fill:#BE0005;"/><rect x="80" y="60" width="10" height="10" rx="0" ry="0" style="fill:#BE0005;"/><rect x="90" y="60" width="10" height="10" rx="0" ry="0" style="fill:#BE0005;"/><rect x="100" y="60" width="10" height="10" rx="0" ry="0" style="fill:#BE0005;"/><rect x="40" y="70" width="10" height="10" rx="0" ry="0" style="fill:#BE0005;"/><rect x="50" y="70" width="10" height="10" rx="0" ry="0" style="fill:#FC4D54;"/><rect x="60" y="70" width="10" height="10" rx="0" ry="0" style="fill:#BE0005;"/><rect x="70" y="70" width="10" height="10" rx="0" ry="0" style="fill:#BE0005;"/><rect x="80" y="70" width="10" height="10" rx="0" ry="0" style="fill:#BE0005;"/><rect x="90" y="70" width="10" height="10" rx="0" ry="0" style="fill:#BE0005;"/><rect x="50" y="80" width="10" height="10" rx="0" ry="0" style="fill:#BE0005;"/><rect x="60" y="80" width="10" height="10" rx="0" ry="0" style="fill:#BE0005;"/><rect x="70" y="80" width="10" height="10" rx="0" ry="0" style="fill:#BE0005;"/><rect x="80" y="80" width="10" height="10" rx="0" ry="0" style="fill:#FC4D54;"/><rect x="60" y="90" width="10" height="10" rx="0" ry="0" style="fill:#BE0005;"/><rect x="70" y="90" width="10" height="10" rx="0" ry="0" style="fill:#FC4D54;"/></svg>